# xmcd
#
# Track frame offsets: 
#        182
#        12287
#        25680
#        33422
#        45060
#        55857
#        65337
#        71565
#        80295
#        92105
#        99830
#        111205
#        118410
#        127957
#        135485
#        149125
#        157390
#        166330
#        172547
#        181385
#        192210
#        205327
#        212120
#        221315
#        236347
#        248435
#        259142
#        267835
#        275460
#        285122
#
# Disc length: 4204 seconds
#
# Revision: 3
# Processed by: cddbd v1.5.1PL0 Copyright (c) Steve Scherf et al.
# Submitted via: ExactAudioCopy v0.90b4
#
DISCID=9d106a1e
DTITLE=Roy Rogers - Happy Trails The Roy Rogers Collection 1937-90 (Di
DTITLE=sc 1)
DYEAR=1999
DGENRE=Country
TTITLE0=I've Sold My Saddle for an Old Guitar (with SOP)
TTITLE1=That Pioneer Mother of Mine
TTITLE2=It's Home Sweet Home To Me
TTITLE3=The Man in the Moon Is a Cowhand
TTITLE4=Cool Water (with SOP)
TTITLE5=A Cowboy Has to Sing (with SOP)
TTITLE6=Pistol Packin' Mama (with SOP)
TTITLE7=Cleanin' My Rifle (& Dreamin' of You)
TTITLE8=My Saddle Pals and I (with SOP)
TTITLE9=Sweet Georgia Brown (with Hugh and Karl Farr)
TTITLE10=Roll Along Prairie Moon
TTITLE11=Singing Down the Road
TTITLE12=Milenburg Joys (with Hugh and Karl Farr)
TTITLE13=Ridin' Down the Canyon (with SOP)
TTITLE14=Doe-Si-Doe (with SOP)
TTITLE15=Don't Fence Me In
TTITLE16=Silver Stars Purple Sage Eyes of Blue
TTITLE17=Take Me Back To T-E-X-A-S
TTITLE18=Lady Round a Lady and the Gent Solo
TTITLE19=My Chickashay Gal
TTITLE20=Silver on the Sage (with SOP and Dale Evans)
TTITLE21=Cowboy Ham and Eggs (with SOP)
TTITLE22=Out California Way (with Dale Evans)
TTITLE23=We'll Rest at the End of the Trail (with SOP and Dale Evans)
TTITLE24=There's a Home in Wyomin' (with SOP and Dale Evans)
TTITLE25=A Gal in Calico
TTITLE26=Ridin' Down the Sunset Trail (with Dale Evans)
TTITLE27=Gonna Build a Big Fence Around Texas (with SOP)
TTITLE28=The Kid with the Rip in His Pants (with SOP)
TTITLE29=Wagon Wheels (with SOP and Dale Evans)
EXTD=The Roy Rogers Collection (1937 - 1990)
EXTT0=
EXTT1=
EXTT2=
EXTT3=
EXTT4=
EXTT5=
EXTT6=
EXTT7=
EXTT8=
EXTT9=
EXTT10=
EXTT11=
EXTT12=
EXTT13=
EXTT14=
EXTT15=
EXTT16=
EXTT17=
EXTT18=
EXTT19=
EXTT20=
EXTT21=
EXTT22=
EXTT23=
EXTT24=
EXTT25=
EXTT26=
EXTT27=
EXTT28=
EXTT29=
PLAYORDER=
